<svg xmlns="http://www.w3.org/2000/svg" width="129" height="40" viewBox="0 0 129 40" fill="none">
<path d="M9.58118 15.9833L19.9499 11.7006V0L9.58118 15.9833Z" fill="#FF596E"/>
<path d="M19.95 11.7007V21.0262L30.3188 15.9834L19.95 11.7007Z" fill="#FF596E"/>
<path d="M19.9501 11.7007V21.0262L9.58301 15.9834L19.9501 11.7007Z" fill="#800010"/>
<path d="M30.3188 15.9833L19.95 11.7006V0L30.3188 15.9833Z" fill="#800010"/>
<path d="M19.9498 24.6255V34.5633L9.38171 19.4851L19.9498 24.6255Z" fill="#FF596E"/>
<path d="M19.95 24.6255V34.5633L30.5198 19.4851L19.95 24.6255Z" fill="#800010"/>
<path d="M32.2626 21.7608L34.6583 27.7427L39.9017 19.9448L32.2626 21.7608Z" fill="#800010"/>
<path d="M34.6583 27.7427L39.9017 26.36V19.9448L34.6583 27.7427Z" fill="#FF596E"/>
<path d="M39.9016 26.3604L32.2625 37.7178L26.4609 39.9302L34.6583 27.7431L39.9016 26.3604Z" fill="#800010"/>
<path d="M0 26.3604L7.63911 37.7178L13.4407 39.9302L5.2433 27.7431L0 26.3604Z" fill="#FF596E"/>
<path d="M19.9497 39.93L7.63885 21.761L5.24304 27.7429L13.4404 39.93H19.9497Z" fill="#800010"/>
<path d="M7.63911 21.7608L5.2433 27.7427L0 19.9448L7.63911 21.7608Z" fill="#FF596E"/>
<path d="M5.2433 27.7427L0 26.36V19.9448L5.2433 27.7427Z" fill="#800010"/>
<path d="M19.95 39.93L32.2626 21.761L34.6584 27.7429L26.461 39.93H19.95Z" fill="#FF596E"/>
<path d="M54.5303 28.4141C55.3524 28.4141 56.0266 28.6472 56.5555 29.1112C57.0844 29.5751 57.3475 30.1685 57.3475 30.8868C57.3475 31.605 57.0844 32.1985 56.5555 32.6624C56.0266 33.1263 55.3524 33.3594 54.5303 33.3594H52.8503V35.4788H51.4993V28.4141H54.5303ZM54.448 32.3209C54.8947 32.3209 55.2647 32.1843 55.5579 31.9112C55.8512 31.638 55.9992 31.2965 55.9992 30.8868C55.9992 30.477 55.8512 30.1355 55.5579 29.8624C55.2647 29.5892 54.8947 29.4526 54.448 29.4526H52.8503V32.3186H54.448V32.3209Z" fill="white"/>
<path d="M64.0313 30.8859C64.0313 31.4297 63.8724 31.9076 63.5547 32.3196C63.2369 32.7292 62.8123 33.0235 62.2809 33.1977L63.9025 35.4788H62.3631L60.8593 33.3601H59.5335V35.4788H58.1831V28.4141H61.2126C62.0344 28.4141 62.7083 28.6472 63.2369 29.1109C63.7656 29.5747 64.0286 30.1679 64.0286 30.8859H64.0313ZM59.5362 32.3173H61.1332C61.5797 32.3173 61.9495 32.1807 62.2426 31.9076C62.5357 31.6346 62.6836 31.2932 62.6836 30.8836C62.6836 30.474 62.5357 30.1326 62.2426 29.8595C61.9495 29.5865 61.5797 29.4499 61.1332 29.4499H59.5362V32.3173Z" fill="white"/>
<path d="M72.2934 34.5917C71.5366 35.3079 70.5212 35.6648 69.2527 35.6648C67.9842 35.6648 66.9688 35.3079 66.212 34.5917C65.4552 33.8754 65.0754 32.9937 65.0754 31.9466C65.0754 30.8994 65.4552 30.0177 66.212 29.3014C66.9688 28.5852 67.9842 28.2283 69.2527 28.2283C70.5212 28.2283 71.5366 28.5876 72.2934 29.3014C73.0503 30.0177 73.43 30.8994 73.43 31.9466C73.43 32.9937 73.0503 33.8754 72.2934 34.5917ZM67.2031 33.8565C67.6987 34.3671 68.3828 34.6224 69.2527 34.6224C70.1226 34.6224 70.804 34.3671 71.3023 33.8565C71.7979 33.3459 72.043 32.7101 72.0349 31.9466C72.043 31.183 71.7979 30.5472 71.3023 30.0366C70.8067 29.526 70.1226 29.2707 69.2527 29.2707C68.3828 29.2707 67.6987 29.526 67.2031 30.0366C66.7075 30.5472 66.4625 31.183 66.4705 31.9466C66.4625 32.7101 66.7075 33.3459 67.2031 33.8565Z" fill="white"/>
<path d="M75.5758 35.4788V29.5044H73.2211V28.4141H79.2782V29.5044H76.9128V35.4788H75.5758Z" fill="white"/>
<path d="M86.6766 34.5917C85.9009 35.3079 84.8601 35.6648 83.5599 35.6648C82.2596 35.6648 81.2188 35.3079 80.4431 34.5917C79.6674 33.8754 79.2781 32.9937 79.2781 31.9466C79.2781 30.8994 79.6674 30.0177 80.4431 29.3014C81.2188 28.5852 82.2596 28.2283 83.5599 28.2283C84.8601 28.2283 85.9009 28.5876 86.6766 29.3014C87.4523 30.0177 87.8416 30.8994 87.8416 31.9466C87.8416 32.9937 87.4523 33.8754 86.6766 34.5917ZM81.459 33.8565C81.967 34.3671 82.6682 34.6224 83.5599 34.6224C84.4515 34.6224 85.15 34.3671 85.6607 33.8565C86.1686 33.3459 86.4199 32.7101 86.4116 31.9466C86.4199 31.183 86.1686 30.5472 85.6607 30.0366C85.1527 29.526 84.4515 29.2707 83.5599 29.2707C82.6682 29.2707 81.967 29.526 81.459 30.0366C80.9511 30.5472 80.6998 31.183 80.7081 31.9466C80.6998 32.7101 80.9511 33.3459 81.459 33.8565Z" fill="white"/>
<path d="M92.8948 35.6648C91.5971 35.6648 90.5697 35.3197 89.8127 34.6318C89.0558 33.9416 88.6773 33.0481 88.6773 31.9466C88.6773 30.845 89.0558 29.9515 89.8127 29.2613C90.5697 28.571 91.5971 28.2283 92.8948 28.2283C93.9843 28.2283 94.8792 28.4694 95.5821 28.9516C96.285 29.4338 96.6986 30.0602 96.823 30.8308H95.3631C95.2306 30.3439 94.9549 29.9633 94.5358 29.6867C94.1141 29.4102 93.5734 29.2707 92.9083 29.2707C92.0188 29.2707 91.3267 29.5118 90.8293 29.994C90.3318 30.4763 90.0831 31.1263 90.0831 31.9442C90.0831 32.7621 90.3318 33.4121 90.8293 33.8943C91.3267 34.3766 92.0215 34.6177 92.9083 34.6177C93.5734 34.6177 94.1141 34.4782 94.5358 34.2016C94.9576 33.9251 95.2333 33.5421 95.3631 33.0575H96.823C96.6986 33.8282 96.285 34.4546 95.5821 34.9368C94.8792 35.419 93.9816 35.6601 92.8948 35.6601V35.6648Z" fill="white"/>
<path d="M104.876 34.5917C104.12 35.3079 103.104 35.6648 101.836 35.6648C100.567 35.6648 99.5517 35.3079 98.7949 34.5917C98.0381 33.8754 97.6583 32.9937 97.6583 31.9466C97.6583 30.8994 98.0381 30.0177 98.7949 29.3014C99.5517 28.5852 100.567 28.2283 101.836 28.2283C103.104 28.2283 104.12 28.5876 104.876 29.3014C105.633 30.0177 106.013 30.8994 106.013 31.9466C106.013 32.9937 105.633 33.8754 104.876 34.5917ZM99.786 33.8565C100.282 34.3671 100.966 34.6224 101.836 34.6224C102.706 34.6224 103.387 34.3671 103.885 33.8565C104.381 33.3459 104.626 32.7101 104.618 31.9466C104.626 31.183 104.381 30.5472 103.885 30.0366C103.39 29.526 102.706 29.2707 101.836 29.2707C100.966 29.2707 100.282 29.526 99.786 30.0366C99.2905 30.5472 99.0454 31.183 99.0534 31.9466C99.0454 32.7101 99.2905 33.3459 99.786 33.8565Z" fill="white"/>
<path d="M107.266 35.4788V28.4141H108.601V34.3885H111.861V35.4788H107.266Z" fill="white"/>
<path d="M75.1257 24.8136V4.66675H88.9065V8.40735H80.3405V12.9874H88.9065V16.6407H80.3405V21.073H88.9065V24.8136H75.1257Z" fill="white"/>
<path d="M96.9619 24.8136V8.81029H90.7778V4.66675H108.361V8.81029H102.147V24.8136H96.9619Z" fill="white"/>
<path d="M110.712 24.8136V4.66675H115.927V12.8128H123.719V4.66675H128.934V24.8136H123.719V16.8086H115.927V24.8136H110.712Z" fill="white"/>
<path d="M51.5314 14.3131V24.8069H55.0785V18.2586L58.3281 24.8069H62.2075L56.999 14.3131H51.5314Z" fill="white"/>
<path d="M67.247 14.3131L62.0386 24.8069H65.9163L69.166 18.2586V24.8069H72.7131V14.3131H67.247Z" fill="white"/>
</svg>